<svg width="96" height="54" viewBox="0 0 96 54" fill="none" xmlns="http://www.w3.org/2000/svg">
<path d="M24.376 44.872C23.536 45.232 22.672 45.592 21.832 45.952V39.256H24.376V37.552H21.832V32.056H20.176V37.552H17.344V39.256H20.176V46.624C18.928 47.128 17.8 47.584 16.888 47.92L17.584 49.72C19.624 48.808 22.264 47.632 24.76 46.504L24.376 44.872ZM36.088 40.696C35.344 43.312 34.168 45.568 32.68 47.392C31.192 45.496 30.088 43.24 29.296 40.696H36.088ZM37.048 38.968L36.736 39.04H27.616V34.792H38.8V33.112H25.912V40.336C25.912 44.08 25.576 48.976 22.336 52.408C22.72 52.624 23.44 53.224 23.704 53.56C27.016 50.056 27.592 44.704 27.616 40.72C28.504 43.816 29.776 46.528 31.48 48.736C29.872 50.32 28 51.52 26.032 52.264C26.392 52.6 26.896 53.296 27.112 53.752C29.128 52.888 31 51.688 32.632 50.104C34.12 51.664 35.872 52.912 37.96 53.776C38.224 53.296 38.776 52.576 39.16 52.216C37.096 51.448 35.344 50.272 33.88 48.76C35.872 46.384 37.408 43.288 38.224 39.376L37.048 38.968ZM59.032 41.704H51.088V39.712H59.032V41.704ZM59.032 44.992H51.088V43H59.032V44.992ZM59.032 48.304H51.088V46.288H59.032V48.304ZM49.408 38.344V49.672H60.784V38.344H55.144C55.36 37.768 55.6 37.096 55.816 36.448H62.656V34.96H58.312C58.84 34.216 59.44 33.256 59.944 32.368L58.168 31.912C57.784 32.776 57.064 34.096 56.488 34.96H52.576L53.2 34.696C52.912 33.88 52.168 32.752 51.424 31.984L50.056 32.512C50.656 33.256 51.256 34.216 51.568 34.96H47.512V36.448H53.872C53.776 37.072 53.632 37.744 53.512 38.344H49.408ZM47.008 36.208C46.168 35.056 44.368 33.52 42.832 32.512L41.512 33.592C43.072 34.648 44.848 36.232 45.592 37.384L47.008 36.208ZM46.336 41.32H41.248V43H44.584V49.072C43.384 50.08 42.04 51.088 40.936 51.808L41.896 53.608C43.168 52.576 44.368 51.544 45.52 50.536C47.056 52.384 49.192 53.248 52.312 53.368C54.952 53.464 59.872 53.416 62.488 53.32C62.56 52.768 62.872 51.928 63.064 51.496C60.256 51.688 54.928 51.76 52.312 51.664C49.552 51.544 47.464 50.728 46.336 48.976V41.32Z" fill="white" fill-opacity="0.54"/>
<path d="M66.8749 31H63.8036V25.3555H51.3192V22.8652L60.8651 7.25977H64.0858L54.5233 22.8652H63.8036V14.4316H66.8749V22.8652L69.3319 24.127V25.3555H66.8749V31ZM72.2372 21.8691C72.2372 15.7155 75.8785 10.6077 83.161 6.5459L84.7548 8.6543C80.7483 10.6022 77.9039 13.2529 76.2216 16.6064C77.6715 16.0199 79.4202 15.7266 81.4677 15.7266C87.1565 15.7266 90.0009 18.2168 90.0009 23.1973C90.0009 28.5098 86.996 31.166 80.9862 31.166C75.1536 31.166 72.2372 28.0671 72.2372 21.8691ZM75.1425 21.7695C75.1425 26.3737 77.1402 28.6758 81.1357 28.6758C85.0426 28.6758 86.996 26.8496 86.996 23.1973C86.996 19.877 85.1034 18.2168 81.3183 18.2168C78.9498 18.2168 77.0461 18.4824 75.6073 19.0137C75.2974 19.6777 75.1425 20.5964 75.1425 21.7695Z" fill="white"/>
</svg>
